<?xml version="1.0" encoding="UTF-8" standalone="no"?>
<!-- Created with Inkscape (http://www.inkscape.org/) -->

<svg
   xmlns:dc="http://purl.org/dc/elements/1.1/"
   xmlns:cc="http://creativecommons.org/ns#"
   xmlns:rdf="http://www.w3.org/1999/02/22-rdf-syntax-ns#"
   xmlns:svg="http://www.w3.org/2000/svg"
   xmlns="http://www.w3.org/2000/svg"
   xmlns:sodipodi="http://sodipodi.sourceforge.net/DTD/sodipodi-0.dtd"
   xmlns:inkscape="http://www.inkscape.org/namespaces/inkscape"
   width="48px"
   height="48px"
   id="svg3846"
   version="1.1"
   inkscape:version="0.48.4 r9939"
   sodipodi:docname="arrow-target.svg"
   inkscape:export-filename="/home/a_bond/p3sb/z99_main/data/arrow-target.png"
   inkscape:export-xdpi="240"
   inkscape:export-ydpi="240">
  <defs
     id="defs3848" />
  <sodipodi:namedview
     id="base"
     pagecolor="#ffffff"
     bordercolor="#666666"
     borderopacity="1.0"
     inkscape:pageopacity="0.0"
     inkscape:pageshadow="2"
     inkscape:zoom="5.6568543"
     inkscape:cx="27.269837"
     inkscape:cy="12.37208"
     inkscape:current-layer="layer1"
     showgrid="true"
     inkscape:grid-bbox="true"
     inkscape:document-units="px"
     inkscape:window-width="1362"
     inkscape:window-height="715"
     inkscape:window-x="0"
     inkscape:window-y="32"
     inkscape:window-maximized="0">
    <inkscape:grid
       type="xygrid"
       id="grid3854" />
  </sodipodi:namedview>
  <metadata
     id="metadata3851">
    <rdf:RDF>
      <cc:Work
         rdf:about="">
        <dc:format>image/svg+xml</dc:format>
        <dc:type
           rdf:resource="http://purl.org/dc/dcmitype/StillImage" />
        <dc:title></dc:title>
      </cc:Work>
    </rdf:RDF>
  </metadata>
  <g
     id="layer1"
     inkscape:label="Layer 1"
     inkscape:groupmode="layer">
    <path
       style="fill:#c4fff5;fill-opacity:0.67489713;fill-rule:nonzero;stroke:#96fff5;stroke-width:0.04838318000000000;stroke-linecap:round;stroke-linejoin:round;stroke-miterlimit:4;stroke-opacity:0.35390948000000000;stroke-dasharray:none;stroke-dashoffset:0"
       d="m 23.538838,42.345196 c -1.008629,-2.559783 -2.880809,-5.858986 -4.337606,-7.64384 -1.4576,-1.785838 -3.135981,-3.30657 -4.833567,-4.379554 -0.837699,-0.529481 -2.313089,-1.284599 -3.011983,-1.541562 -0.309709,-0.113871 0.139776,-0.131692 3.471335,-0.137626 2.839798,-0.005 3.857065,-0.03677 3.943229,-0.122938 0.232971,-0.232972 0.06678,-5.992697 -0.270279,-9.366985 C 17.896378,13.110114 16.675375,9.0673495 14.840609,7.0364831 l -0.33125,-0.3666549 9.518556,0.00294 c 6.537542,0.00203 9.465306,0.033953 9.348528,0.1019596 -0.328543,0.1913279 -1.159682,1.4049617 -1.618019,2.3626415 -1.468613,3.0686067 -2.29853,7.6549547 -2.612266,14.4361057 -0.05463,1.180728 -0.09932,2.757698 -0.09932,3.504377 0,1.243183 0.01578,1.366042 0.187171,1.457771 0.119139,0.06376 1.552403,0.102647 3.94323,0.106993 3.340122,0.006 3.715065,0.02185 3.38587,0.142616 -2.356726,0.86453 -5.344121,3.023417 -7.244067,5.235039 -1.945722,2.264906 -3.645293,5.15292 -4.91764,8.356352 -0.221956,0.558826 -0.41096,1.023679 -0.420008,1.033006 -0.0091,0.0093 -0.208198,-0.469667 -0.442552,-1.06443 l 0,0 z"
       id="path4384"
       inkscape:connector-curvature="0" />
  </g>
</svg>
