<?xml version="1.0" encoding="UTF-8" standalone="no"?>
<!-- Created with Inkscape (http://www.inkscape.org/) -->

<svg
   xmlns:dc="http://purl.org/dc/elements/1.1/"
   xmlns:cc="http://creativecommons.org/ns#"
   xmlns:rdf="http://www.w3.org/1999/02/22-rdf-syntax-ns#"
   xmlns:svg="http://www.w3.org/2000/svg"
   xmlns="http://www.w3.org/2000/svg"
   xmlns:sodipodi="http://sodipodi.sourceforge.net/DTD/sodipodi-0.dtd"
   xmlns:inkscape="http://www.inkscape.org/namespaces/inkscape"
   width="48px"
   height="48px"
   id="svg3842"
   version="1.1"
   inkscape:version="0.48.4 r9939"
   sodipodi:docname="bg-com-0.svg"
   inkscape:export-filename="/home/a_bond/p3sb/z99_main/data/bg-com-0.png"
   inkscape:export-xdpi="240"
   inkscape:export-ydpi="240">
  <defs
     id="defs3844" />
  <sodipodi:namedview
     id="base"
     pagecolor="#ffffff"
     bordercolor="#666666"
     borderopacity="1.0"
     inkscape:pageopacity="0.0"
     inkscape:pageshadow="2"
     inkscape:zoom="7"
     inkscape:cx="-9.9285715"
     inkscape:cy="27.014743"
     inkscape:current-layer="layer1"
     showgrid="true"
     inkscape:grid-bbox="true"
     inkscape:document-units="px"
     inkscape:window-width="1362"
     inkscape:window-height="715"
     inkscape:window-x="0"
     inkscape:window-y="32"
     inkscape:window-maximized="0">
    <inkscape:grid
       type="xygrid"
       id="grid3850" />
  </sodipodi:namedview>
  <metadata
     id="metadata3847">
    <rdf:RDF>
      <cc:Work
         rdf:about="">
        <dc:format>image/svg+xml</dc:format>
        <dc:type
           rdf:resource="http://purl.org/dc/dcmitype/StillImage" />
        <dc:title />
      </cc:Work>
    </rdf:RDF>
  </metadata>
  <g
     id="layer1"
     inkscape:label="Layer 1"
     inkscape:groupmode="layer">
    <path
       style="fill:#ba8a4a;stroke:none;stroke-width:1px;stroke-linecap:butt;stroke-linejoin:miter;stroke-opacity:1;fill-opacity:1"
       d="m 26.364981,0.11876935 5.000256,1.06066015 6.869037,0.1515229 6.970052,-0.5555839 2.121321,-0.80812203 z"
       id="path4430"
       inkscape:connector-curvature="0" />
    <path
       style="fill:#96682e;fill-opacity:1;fill-rule:nonzero;stroke:#000000;stroke-width:0.04211242000000000;stroke-linejoin:round;stroke-miterlimit:4;stroke-opacity:1;stroke-dasharray:none;stroke-dashoffset:0;stroke-linecap:round"
       d="m 36.558051,35.391291 c -6.449084,-5.169879 -8.907836,-10.980597 -6.891053,-16.285483 0.227336,-0.597979 0.22849,-0.599008 0.671137,-0.598203 0.625643,0.0011 4.263631,0.269866 7.023195,0.518787 2.61007,0.235437 4.178251,0.261089 6.367535,0.10416 1.406497,-0.100818 3.708453,-0.423424 4.113889,-0.576539 0.17635,-0.0666 0.184948,0.177165 0.15879,4.501895 l -0.02766,4.572304 -0.318378,0.09973 c -3.36999,1.055677 -6.974356,4.112561 -9.240262,7.836723 l -0.537965,0.88418 -1.319233,-1.057558 z"
       id="path3916"
       inkscape:connector-curvature="0" />
    <path
       style="fill:#8c592e;fill-opacity:1;fill-rule:nonzero;stroke:#000000;stroke-width:0.04192703000000000;stroke-linecap:round;stroke-linejoin:round;stroke-miterlimit:4;stroke-opacity:1;stroke-dasharray:none;stroke-dashoffset:0"
       d="M 24.855756,37.054796 C 24.590134,36.338109 24.289271,35.348768 23.628772,34.756173 22.429823,33.680486 20.812163,32.933796 18.971847,32.606597 18.072,32.446611 15.285691,32.392702 14.490294,32.51989 l -0.584413,0.142039 0.188053,-0.636837 c 0.784874,-2.657959 2.399846,-5.58124 2.2433,-8.741179 -0.06427,-1.297349 -0.364523,-3.337787 -0.640095,-4.349929 -0.08633,-0.317074 -0.15752,-0.595401 -0.158205,-0.618506 -0.0019,-0.06632 12.783831,0.08482 13.319541,0.157447 l 0.480632,0.06517 -0.239653,0.660236 c -0.447936,1.234051 -0.59368,2.355316 -0.537867,4.137998 0.04046,1.292245 0.10686,1.841332 0.324527,2.683556 0.759705,2.939552 2.262389,5.37377 5.062793,8.201284 0.933282,0.942318 2.023119,1.682088 1.898048,1.643936 -0.125069,-0.03816 -1.439318,-0.09616 -2.396745,-0.1289 -1.380015,-0.04719 -1.966523,-0.02182 -2.830074,0.122469 -1.349432,0.225461 -2.999454,0.758315 -4.188162,1.352512 l -1.403769,0.237478 z"
       id="path3890"
       inkscape:connector-curvature="0"
       sodipodi:nodetypes="cssscssscccsssscssscc" />
    <path
       style="fill:#cd9953;fill-opacity:1;fill-rule:nonzero;stroke:#000000;stroke-width:0.04407410000000000;stroke-linejoin:round;stroke-miterlimit:4;stroke-opacity:1;stroke-dasharray:none;stroke-dashoffset:0;stroke-linecap:round"
       d="M 11.030141,40.562676 C 9.9206116,40.446099 7.3443755,40.015985 7.167925,39.917862 6.8908921,39.763808 8.2309011,37.216957 9.1988081,36.057921 c 1.0174079,-1.21831 3.0322399,-2.754694 3.4182729,-2.606558 0.0808,0.03099 0.255869,-0.01225 0.389049,-0.09612 0.229643,-0.144621 1.662004,-0.34534 3.106959,-0.435386 0.363612,-0.02265 1.181736,2.95e-4 1.818057,0.05102 2.483675,0.197946 4.248593,0.917514 5.621474,2.291909 0.814102,0.814999 1.540566,1.971474 1.540566,2.452461 0,0.151161 -0.345435,0.368656 -1.349769,0.849855 -1.902777,0.911664 -3.412452,1.381806 -5.757179,1.792896 -1.385684,0.242946 -5.452908,0.362625 -6.956097,0.204688 z"
       id="path3894"
       inkscape:connector-curvature="0" />
    <path
       style="fill:#aa844f;fill-opacity:1;fill-rule:nonzero;stroke:#000000;stroke-width:0.04392859000000000;stroke-linejoin:round;stroke-miterlimit:4;stroke-opacity:1;stroke-dasharray:none;stroke-dashoffset:0;stroke-linecap:round"
       d="m 6.6186263,46.780359 c -0.2112146,-1.307186 -0.2664135,-4.314091 -0.09929,-5.408708 0.1674904,-1.097016 -0.017253,-1.036016 2.064398,-0.681624 5.7490077,0.978749 11.2603907,0.367349 15.6495607,-1.73607 0.604019,-0.289463 1.108528,-0.516634 1.121131,-0.504824 0.0126,0.01181 0.08419,0.390044 0.159087,0.840521 0.187479,1.127641 0.185011,5.438619 -0.004,7.061755 l -0.1515,1.300739 -0.452517,-0.06412 C 22.316785,47.221204 13.59525,47.142464 9.5172176,47.449098 8.1883777,47.549016 7.0235211,47.630925 6.9286473,47.631122 6.798469,47.631389 6.72241,47.422667 6.6186263,46.780359 z"
       id="path3896"
       inkscape:connector-curvature="0" />
    <path
       style="fill:#ad8856;fill-opacity:1;fill-rule:nonzero;stroke:#000000;stroke-width:0.04368627000000000;stroke-linejoin:round;stroke-miterlimit:4;stroke-opacity:1;stroke-dasharray:none;stroke-dashoffset:0;stroke-linecap:round"
       d="m 0,44 0,-4 0.94517341,0.04863 c 1.46037269,0.07514 5.18334179,-0.240546 5.51352429,0.08351 0.044024,0.0432 0.030392,0.371826 -0.030296,0.730261 -0.2748563,1.623367 -0.2469299,4.140383 0.07115,6.412827 L 6.5721657,47.794001 3,48 0,48 z"
       id="path3900"
       inkscape:connector-curvature="0"
       sodipodi:nodetypes="ccscsscccc" />
    <path
       style="fill:#b88846;fill-opacity:1;fill-rule:nonzero;stroke:#000000;stroke-width:0.04296902000000000;stroke-linejoin:round;stroke-miterlimit:4;stroke-opacity:1;stroke-dasharray:none;stroke-dashoffset:0;stroke-linecap:round"
       d="m 0.03323076,34.036158 0,-5.794751 0.49839456,-0.06831 c 0.84710028,-0.116109 2.40961158,-0.07493 3.42871388,0.09036 2.2024305,0.35722 4.374951,1.304431 6.1706108,2.690363 0.714009,0.551088 2.041387,1.76142 2.040109,1.860213 -5.37e-4,0.03909 -0.350972,0.285614 -0.778813,0.547858 -0.975064,0.597663 -2.0710932,1.634124 -2.8960047,2.738607 -0.6024947,0.806687 -1.9102351,3.261938 -1.9102351,3.58642 0,0.111961 -0.089968,0.133985 -0.3491233,0.08547 -1.8918575,-0.354214 -4.269276,-0.356145 -5.90824014,-0.0048 l -0.295412,0.06333 0,-5.794752 z"
       id="path3902"
       inkscape:connector-curvature="0" />
    <path
       style="fill:#b88846;fill-opacity:1;fill-rule:nonzero;stroke:#000000;stroke-width:0.04603121;stroke-linecap:round;stroke-linejoin:round;stroke-miterlimit:4;stroke-opacity:1;stroke-dasharray:none;stroke-dashoffset:0"
       d="m 44.669451,39.756222 c -0.841732,-0.164268 -1.776176,-0.444396 -2.676827,-0.80246 -1.059999,-0.421418 -3.652466,-1.8327 -3.652466,-1.988324 0,-0.05002 0.318624,-1.42194 0.659842,-1.965438 1.646484,-2.622541 2,-4 5,-6 0.756248,-0.504165 3.275965,-0.665901 3.862866,-0.843644 l 0.258926,-0.07841 0,5.634084 0,5.634085 -0.489081,0.20389 c -0.48585,0.202542 -2.325928,0.3306 -2.96326,0.206217 z"
       id="path3918"
       inkscape:connector-curvature="0"
       sodipodi:nodetypes="sssssccccss"
       inkscape:export-filename="/home/a_bond/p3sb/z99_main/data/path3918.png"
       inkscape:export-xdpi="240"
       inkscape:export-ydpi="240" />
    <path
       style="fill:#ad8856;fill-opacity:1;fill-rule:nonzero;stroke:#000000;stroke-width:0.04096487000000000;stroke-linejoin:round;stroke-miterlimit:4;stroke-opacity:1;stroke-dasharray:none;stroke-dashoffset:0;stroke-linecap:round"
       d="m 25.412824,46.982537 c 0.419714,-2.076711 0.350319,-5.58004 0.04325,-7.73165 -0.171987,-1.205077 -0.256219,-1.074949 1.125297,-1.738455 1.094332,-0.525579 2.249404,-0.90074 3.494918,-1.13513 1.357886,-0.255537 3.913021,-0.15967 5.342904,0.200463 1.247894,0.314297 2.54381,0.831597 3.605256,1.439136 3.289646,1.882891 6.097366,2.521404 8.167372,1.857369 L 48.075761,39.444416 48,44 l 0,4 -12,0 -10.808122,0.07576 z"
       id="path3920"
       inkscape:connector-curvature="0"
       sodipodi:nodetypes="ssssssscccccs" />
    <path
       style="fill:#995c38;fill-opacity:1;fill-rule:nonzero;stroke:#000000;stroke-width:0.04234083000000000;stroke-linecap:round;stroke-linejoin:round;stroke-miterlimit:4;stroke-opacity:1;stroke-dasharray:none;stroke-dashoffset:0"
       d="m 36.51621,18.662568 c -1.106155,-0.109224 -2.699677,-0.560515 -3.977669,-0.65366 -1.277993,-0.09315 -2.342327,-0.18806 -2.365189,-0.210922 -0.02286,-0.02286 0.02214,-0.485624 0.09998,-1.02836 0.188753,-1.315776 0.193069,-6.615111 0.0063,-7.6994359 -0.07436,-0.431708 -0.09784,-0.8206912 -0.05215,-0.8644071 0.475146,-0.4546671 11.425811,-0.4748097 16.728306,-0.03077 L 48,8 l 0,5 0,5 0,0 c 0,0 -7.398842,1.030661 -11.126625,0.662567 z"
       id="path3914"
       inkscape:connector-curvature="0"
       sodipodi:nodetypes="csscscscccscc" />
    <path
       style="fill:#96682e;fill-opacity:1;fill-rule:nonzero;stroke:#000000;stroke-width:0.04324848000000000;stroke-linejoin:round;stroke-miterlimit:4;stroke-opacity:1;stroke-dasharray:none;stroke-dashoffset:0;stroke-linecap:round"
       d="M 12.330139,31.647981 C 9.3330413,28.706185 5.3792559,27.130981 1.3828679,27.286545 l -1.43260589,0.05576 0,-4.650301 0,-4.650303 0.51357563,0.06597 c 3.42419476,0.439853 9.82911636,0.466862 13.47632736,0.05682 0.528715,-0.05944 0.981846,-0.08752 1.006958,-0.06241 0.09253,0.09255 0.362479,1.237671 0.576757,2.446694 0.715578,4.03749 0.144143,7.984826 -1.583454,10.938097 -0.266643,0.455821 -0.543421,0.869568 -0.615062,0.919436 -0.08657,0.06026 -0.420354,-0.194074 -0.995225,-0.758339 l 0,0 z"
       id="path3904"
       inkscape:connector-curvature="0" />
    <path
       style="fill:#a67a3e;fill-opacity:1;fill-rule:nonzero;stroke:#000000;stroke-width:0.04532814000000000;stroke-linejoin:round;stroke-miterlimit:4;stroke-opacity:1;stroke-dasharray:none;stroke-dashoffset:0;stroke-linecap:round"
       d="m 0.07524369,3.9154182 0,-3.71304372 0.48161154,0.0781977 C 2.3691575,0.57482987 4.5437087,0.57507741 6.381297,0.28123511 6.9455013,0.19101521 6.9378705,0.17127181 7.1170351,2.1848281 7.2142427,3.2773028 7.2128283,3.9938514 7.1112195,5.1311573 6.9029649,7.4621431 7.022753,7.2567861 5.8697015,7.2595369 4.8581916,7.2619505 2.072041,7.423884 0.80034207,7.5541734 l -0.72509838,0.074289 0,-3.7130438 z"
       id="path3908"
       inkscape:connector-curvature="0" />
    <path
       style="fill:#9b6231;fill-opacity:1;fill-rule:nonzero;stroke:#000000;stroke-width:0.04356159000000000;stroke-linejoin:round;stroke-miterlimit:4;stroke-opacity:1;stroke-dasharray:none;stroke-dashoffset:0;stroke-linecap:round"
       d="M 21.165511,8.1829852 C 20.895974,8.1648772 19.744314,8.0967583 18.606268,8.0316098 17.468221,7.9664614 16.085845,7.8679011 15.534321,7.8125871 13.922232,7.650906 9.6479509,7.3836634 8.6415543,7.3816278 7.384696,7.3790857 7.1987932,7.3217842 7.2742776,6.9601881 7.3070381,6.8032542 7.3839914,5.9964965 7.4452849,5.1673932 7.5504419,3.7449584 7.4688065,1.6476702 7.2697567,0.65790912 L 7,0 l 9,0 8.96681,-0.05317166 -0.03824,-0.01825691 c -0.03444,0.13718034 1.89e-4,1.46034557 -0.0679,2.17670017 -0.135937,1.4300626 -0.06902,3.279624 0.178256,4.9268545 0.08583,0.5717261 0.156045,1.0805269 0.156045,1.1306687 0,0.08347 -2.873224,0.097867 -4.029447,0.02019 z"
       id="path3910"
       inkscape:connector-curvature="0"
       sodipodi:nodetypes="cssssssccccssscc" />
    <path
       style="fill:#ab814c;fill-opacity:1;fill-rule:nonzero;stroke:#000000;stroke-width:0.04204402000000000;stroke-linejoin:round;stroke-miterlimit:4;stroke-opacity:1;stroke-dasharray:none;stroke-dashoffset:0;stroke-linecap:round"
       d="M 24.867221,6.8057465 C 24.617201,5.1425218 24.548329,3.3204834 24.68755,2.0524747 c 0.184851,-1.68360051 0.128042,-1.5870428 0.834996,-1.41923369 0.924952,0.21955489 3.484969,0.63902569 5.169176,0.84699389 1.227648,0.1515914 2.321442,0.1881928 5.623388,0.1881742 3.633715,-2.04e-5 4.324142,-0.027484 6.079037,-0.2418029 1.746387,-0.2132809 4.497619,-0.64966803 5.187492,-0.82281517 l 0.468869,-0.15937493 0.02669,3.5655849 0.01366,3.585938 -1.13336,-0.1338096 c -2.187497,-0.2582658 -5.843288,-0.30949 -9.381073,-0.313942 -4.087799,-0.00514 -5.514896,0.074857 -8.31707,0.4662459 -0.816703,0.1140717 -2.099467,0.2420548 -2.850582,0.2844069 l -1.365664,0.077004 z"
       id="path3912"
       inkscape:connector-curvature="0"
       sodipodi:nodetypes="ssssssscccsssscs" />
    <path
       style="fill:#a0773e;fill-opacity:1;fill-rule:nonzero;stroke:#000000;stroke-width:0.04285862000000000;stroke-linejoin:round;stroke-miterlimit:4;stroke-opacity:1;stroke-dasharray:none;stroke-dashoffset:0;stroke-linecap:round"
       d="m 21.906918,17.814381 c -6.330211,-0.02655 -6.773594,-0.04053 -6.824568,-0.215107 -0.325098,-1.113376 -0.442017,-6.117002 -0.187787,-8.0364128 0.08009,-0.6047087 0.18003,-1.1207324 0.222078,-1.1467194 0.04204,-0.025987 1.085253,0.028368 2.318235,0.1207887 3.864584,0.2896782 11.189899,0.210208 12.381872,-0.1343273 0.281222,-0.081286 0.424195,1.0000068 0.490051,3.7062068 0.05292,2.174546 -0.03221,3.975879 -0.254471,5.384115 l -0.06342,0.401799 -0.655973,-0.02598 c -0.360782,-0.01429 -3.702493,-0.03875 -7.426022,-0.05437 l 0,0 z"
       id="path3892"
       inkscape:connector-curvature="0" />
    <path
       style="fill:#795422;fill-opacity:1;fill-rule:nonzero;stroke:#000000;stroke-width:0.04331337000000000;stroke-linejoin:round;stroke-miterlimit:4;stroke-opacity:1;stroke-dasharray:none;stroke-dashoffset:0;stroke-linecap:round"
       d="M 4.3150397,18.134832 C 3.3313806,18.080612 0.99597986,17.881668 0.4428005,17.804978 L -0.01851017,17.741025 0.00966675,12.907801 0.03784366,8.0745781 1.0665363,7.9295327 C 3.0503725,7.6498123 11.486781,7.7484329 14.283037,8.0840323 l 0.493199,0.059192 -0.134462,0.9830439 c -0.305841,2.2359758 -0.279826,5.9559338 0.05654,8.0837198 l 0.08731,0.552321 -0.335463,0.05595 C 13.07957,18.046842 6.4662161,18.253414 4.315045,18.13483 z"
       id="path3906"
       inkscape:connector-curvature="0" />
    <path
       style="fill:none;stroke:#000000;stroke-width:1px;stroke-linecap:round;stroke-linejoin:miter;stroke-opacity:1"
       d="m 0,8 c 5,-1 15,0 15,0 0,0 9,1 15,0 6,-1 18,0 18,0"
       id="path3852"
       inkscape:connector-curvature="0" />
    <path
       style="fill:none;stroke:#000000;stroke-width:1px;stroke-linecap:round;stroke-linejoin:miter;stroke-opacity:1"
       d="m 0,18 c 8,1 15,0 15,0 0,0 5,0 10,0 5,0 15,1 15,1 0,0 6,0 8,-1"
       id="path3854"
       inkscape:connector-curvature="0"
       sodipodi:nodetypes="ccscc" />
    <path
       style="fill:none;stroke:#000000;stroke-width:1px;stroke-linecap:round;stroke-linejoin:miter;stroke-opacity:1"
       d="m 15,8 c -1,5 0,10 0,10"
       id="path3856"
       inkscape:connector-curvature="0" />
    <path
       style="fill:none;stroke:#000000;stroke-width:1px;stroke-linecap:round;stroke-linejoin:miter;stroke-opacity:1"
       d="m 30,8 c 1,5 0,10 0,10"
       id="path3858"
       inkscape:connector-curvature="0" />
    <path
       style="fill:none;stroke:#000000;stroke-width:1px;stroke-linecap:round;stroke-linejoin:miter;stroke-opacity:1"
       d="M 7,8 C 8,3 7,0 7,0"
       id="path3862"
       inkscape:connector-curvature="0" />
    <path
       style="fill:none;stroke:#000000;stroke-width:1px;stroke-linecap:round;stroke-linejoin:miter;stroke-opacity:1"
       d="M 7,48 C 6,43 7,40 7,40"
       id="path3864"
       inkscape:connector-curvature="0" />
    <path
       style="fill:none;stroke:#000000;stroke-width:1px;stroke-linecap:round;stroke-linejoin:miter;stroke-opacity:1"
       d="M 25,8 C 24,3 25,0 25,0"
       id="path3866"
       inkscape:connector-curvature="0" />
    <path
       style="fill:none;stroke:#000000;stroke-width:1px;stroke-linecap:round;stroke-linejoin:miter;stroke-opacity:1"
       d="m 7,48 c 11,-1 18,0 18,0"
       id="path3868"
       inkscape:connector-curvature="0" />
    <path
       style="fill:none;stroke:#000000;stroke-width:1px;stroke-linecap:round;stroke-linejoin:miter;stroke-opacity:1"
       d="m 25,38 c 1,5 0,10 0,10"
       id="path3870"
       inkscape:connector-curvature="0" />
    <path
       style="fill:none;stroke:#000000;stroke-width:1px;stroke-linecap:round;stroke-linejoin:miter;stroke-opacity:1"
       d="m 0,40 c 4,-1 7,0 7,0 0,0 10,3 18,-2 8,-5 15,0 15,0 0,0 5,3 8,1"
       id="path3872"
       inkscape:connector-curvature="0"
       sodipodi:nodetypes="ccscc" />
    <path
       style="fill:none;stroke:#000000;stroke-width:1px;stroke-linecap:round;stroke-linejoin:miter;stroke-opacity:1"
       d="M 24.898985,0.10101525 C 36.898985,3.1010153 48,0 48,0"
       id="path3874"
       inkscape:connector-curvature="0"
       sodipodi:nodetypes="cc"
       inkscape:export-filename="/home/a_bond/p3sb/z99_main/data/bg-com-0.png"
       inkscape:export-xdpi="240"
       inkscape:export-ydpi="240" />
    <path
       style="fill:none;stroke:#000000;stroke-width:1px;stroke-linecap:round;stroke-linejoin:miter;stroke-opacity:1"
       d="M 0,0 C 4,1 7,0 7,0"
       id="path3876"
       inkscape:connector-curvature="0" />
    <path
       style="fill:none;stroke:#000000;stroke-width:1px;stroke-linecap:round;stroke-linejoin:miter;stroke-opacity:1"
       d="m 0,48 c 4,1 7,0 7,0"
       id="path3878"
       inkscape:connector-curvature="0" />
    <path
       style="fill:none;stroke:#000000;stroke-width:1px;stroke-linecap:round;stroke-linejoin:miter;stroke-opacity:1"
       d="M 15,18 C 18,28 13,33 13,33 7,26 0,28 0,28"
       id="path3882"
       inkscape:connector-curvature="0"
       sodipodi:nodetypes="ccc" />
    <path
       style="fill:none;stroke:#000000;stroke-width:1px;stroke-linecap:round;stroke-linejoin:miter;stroke-opacity:1"
       d="m 48,28 c -8,1 -10,9 -10,9"
       id="path3884"
       inkscape:connector-curvature="0"
       sodipodi:nodetypes="cc" />
    <path
       style="fill:none;stroke:#000000;stroke-width:1px;stroke-linecap:round;stroke-linejoin:miter;stroke-opacity:1"
       d="m 7,40 c 2,-6 6,-7 6,-7 11,-2 12,5 12,5"
       id="path3886"
       inkscape:connector-curvature="0" />
    <path
       style="fill:none;stroke:#000000;stroke-width:1px;stroke-linecap:round;stroke-linejoin:miter;stroke-opacity:1"
       d="M 38,37 C 24,27 30,18 30,18"
       id="path3888"
       inkscape:connector-curvature="0" />
    <path
       style="fill:none;stroke:#000000;stroke-width:1px;stroke-linecap:butt;stroke-linejoin:miter;stroke-opacity:1"
       d="m 47.857143,8.1428571 c -0.357143,5.4285709 0,10.0714289 0,10.0714289"
       id="path4451"
       inkscape:connector-curvature="0"
       sodipodi:nodetypes="cc" />
    <path
       style="fill:none;stroke:#000000;stroke-width:1px;stroke-linecap:butt;stroke-linejoin:miter;stroke-opacity:1"
       d="M 47.628693,0.42181511 C 47.527677,4.8664863 47.729708,8.1999897 47.729708,8.1999897"
       id="path4453"
       inkscape:connector-curvature="0"
       sodipodi:nodetypes="cc" />
    <rect
       style="fill:#000000;fill-opacity:0.56611568;fill-rule:nonzero;stroke:none"
       id="rect4546"
       width="60"
       height="55"
       x="-5"
       y="-2" />
  </g>
</svg>
