<?xml version="1.0" encoding="UTF-8" standalone="no"?>
<!-- Created with Inkscape (http://www.inkscape.org/) -->

<svg
   xmlns:dc="http://purl.org/dc/elements/1.1/"
   xmlns:cc="http://creativecommons.org/ns#"
   xmlns:rdf="http://www.w3.org/1999/02/22-rdf-syntax-ns#"
   xmlns:svg="http://www.w3.org/2000/svg"
   xmlns="http://www.w3.org/2000/svg"
   xmlns:sodipodi="http://sodipodi.sourceforge.net/DTD/sodipodi-0.dtd"
   xmlns:inkscape="http://www.inkscape.org/namespaces/inkscape"
   width="48px"
   height="48px"
   id="svg3027"
   version="1.1"
   inkscape:version="0.48.4 r9939"
   sodipodi:docname="bg-com-1.svg"
   inkscape:export-filename="/home/a_bond/p3sb/z99_main/data/bg-com-1.png"
   inkscape:export-xdpi="240"
   inkscape:export-ydpi="240">
  <defs
     id="defs3029" />
  <sodipodi:namedview
     id="base"
     pagecolor="#ffffff"
     bordercolor="#666666"
     borderopacity="1.0"
     inkscape:pageopacity="0.0"
     inkscape:pageshadow="2"
     inkscape:zoom="4.9497475"
     inkscape:cx="9.85696"
     inkscape:cy="15.972535"
     inkscape:current-layer="layer1"
     showgrid="true"
     inkscape:grid-bbox="true"
     inkscape:document-units="px"
     inkscape:window-width="1362"
     inkscape:window-height="715"
     inkscape:window-x="0"
     inkscape:window-y="32"
     inkscape:window-maximized="0">
    <inkscape:grid
       type="xygrid"
       id="grid3035" />
  </sodipodi:namedview>
  <metadata
     id="metadata3032">
    <rdf:RDF>
      <cc:Work
         rdf:about="">
        <dc:format>image/svg+xml</dc:format>
        <dc:type
           rdf:resource="http://purl.org/dc/dcmitype/StillImage" />
        <dc:title></dc:title>
      </cc:Work>
    </rdf:RDF>
  </metadata>
  <g
     id="layer1"
     inkscape:label="Layer 1"
     inkscape:groupmode="layer">
    <rect
       style="fill:#2c1b00;fill-opacity:1;fill-rule:nonzero;stroke:#96fff5;stroke-width:0.50000000000000000;stroke-linecap:round;stroke-linejoin:round;stroke-miterlimit:4;stroke-opacity:0.35390948000000000;stroke-dasharray:none;stroke-dashoffset:0"
       id="rect3082"
       width="55"
       height="53"
       x="-3"
       y="-2" />
    <path
       style="fill:#5e3500;stroke:#000000;stroke-width:1px;stroke-linecap:butt;stroke-linejoin:miter;stroke-opacity:1;fill-opacity:1"
       d="M 1,3 C 1,1 3,1 3,1 l 13,0 c 0,0 -2,0 0,0 2,0 2,2 2,2 l 0,5 c 0,0 0,-2 0,0 0,2 -3,2 -3,2 L 3,10 C 3,10 1,10 1,8 1,6 1,3 1,3 z"
       id="path3037"
       inkscape:connector-curvature="0"
       sodipodi:nodetypes="sccsccscczs" />
    <path
       style="fill:#966421;stroke:#000000;stroke-width:1px;stroke-linecap:butt;stroke-linejoin:miter;stroke-opacity:1;fill-opacity:1"
       d="m 20,3 c 0,-2 2,-2 2,-2 l 0,0 c 9,0 8,0 9,0 2,0 2,2 2,2 l 0,6 c 0,0 0,-2 0,0 0,2 -2,2 -2,2 l 0,0 c 0,0 -7,0 -9,0 -2,0 -2,-2 -2,-2 l 0,0 z"
       id="path3039"
       inkscape:connector-curvature="0"
       sodipodi:nodetypes="sccsccsccsccs" />
    <path
       style="fill:#7c5c31;stroke:#000000;stroke-width:1px;stroke-linecap:butt;stroke-linejoin:miter;stroke-opacity:1;fill-opacity:1"
       d="m 35,3 c 0,-2 2,-2 2,-2 l 8,0 c 0,0 -2,0 0,0 2,0 2,2 2,2 l 0,5 c 0,0 0,-2 0,0 0,2 -2,2 -2,2 l -8,0 c 0,0 2,0 0,0 -2,0 -2,-2 -2,-2 z"
       id="path3041"
       inkscape:connector-curvature="0" />
    <path
       style="fill:#5c5143;stroke:#000000;stroke-width:1px;stroke-linecap:butt;stroke-linejoin:miter;stroke-opacity:1;fill-opacity:1"
       d="m 17,12 c 2,0 2,2 2,2 l 0,6 c 0,0 0,-2 0,0 0,2 -2,2 -2,2 l -8,0 c 0,0 2,0 0,0 -2,0 -2,-2 -2,-2 l 0,-6 c 0,0 0,2 0,0 0,-2 2,-2 2,-2 z"
       id="path3043"
       inkscape:connector-curvature="0" />
    <path
       style="fill:#7d5625;stroke:#000000;stroke-width:1px;stroke-linecap:butt;stroke-linejoin:miter;stroke-opacity:1;fill-opacity:1"
       d="m 2,12 c -1,0 -1,1 -1,1 0,0 0,0 0,0 l 0,15 c 0,0 0,-2 0,0 0,2 2,2 2,2 l 9,0 c 0,0 -2,0 0,0 2,0 2,-2 2,-2 l 0,-2 c 0,0 0,2 0,0 0,-2 -2,-2 -2,-2 l -6,0 c 0,0 1,0 0,0 C 5,24 5,23 5,23 L 5,13 c 0,0 0,1 0,0 0,-1 -1,-1 -1,-1 z"
       id="path3045"
       inkscape:connector-curvature="0" />
    <path
       style="fill:#70532e;stroke:#000000;stroke-width:1px;stroke-linecap:butt;stroke-linejoin:miter;stroke-opacity:1;fill-opacity:1"
       d="m 20.357143,14.928571 c 0,-2 2,-2 2,-2 0,0 0,0 0,0 l 13,0 c 0,0 -2,0 0,0 2,0 2,2 2,2 l 0,3 c 0,0 0,-2 0,0 0,2 -2,2 -2,2 l -13,0 c 0,0 2,0 0,0 -2,0 -2,-2 -2,-2 z"
       id="path3047"
       inkscape:connector-curvature="0" />
    <path
       style="fill:#966426;stroke:#000000;stroke-width:1px;stroke-linecap:butt;stroke-linejoin:miter;stroke-opacity:1;fill-opacity:1"
       d="m 39,14 c 0,-2 2,-2 2,-2 l 4,0 c 0,0 -2,0 0,0 2,0 2,2 2,2 l 0,12 c 0,0 0,-2 0,0 0,2 -2,2 -2,2 l -4,0 c 0,0 2,0 0,0 -2,0 -2,-2 -2,-2 z"
       id="path3049"
       inkscape:connector-curvature="0" />
    <path
       style="fill:#815115;stroke:#000000;stroke-width:1px;stroke-linecap:butt;stroke-linejoin:miter;stroke-opacity:1;fill-opacity:1"
       d="m 16,26 c 0,-2 2,-2 2,-2 0,0 3,0 3,0 0,0 -2,0 0,0 2,0 2,2 2,2 0,0 0,7 0,7 0,0 0,-2 0,0 0,2 -2,2 -2,2 l -3,0 c 0,0 2,0 0,0 -2,0 -2,-2 -2,-2 z"
       id="path3051"
       inkscape:connector-curvature="0" />
    <path
       style="fill:#834e0c;stroke:#000000;stroke-width:1px;stroke-linecap:butt;stroke-linejoin:miter;stroke-opacity:1;fill-opacity:1"
       d="m 26.785714,22 c -2,0 -2,2 -2,2 l 0,9 c 0,0 0,-2 0,0 0,2 2,2 2,2 0,0 0,0 0,0 l 8,0 c 0,0 -2,0 0,0 2,0 2,-2 2,-2 0,0 0,0 0,0 l 0,-9 c 0,0 0,2 0,0 0,-2 -2,-2 -2,-2 z"
       id="path3053"
       inkscape:connector-curvature="0" />
    <path
       style="fill:#784500;stroke:#000000;stroke-width:1px;stroke-linecap:butt;stroke-linejoin:miter;stroke-opacity:1;fill-opacity:1"
       d="m 3,32 c -2,0 -2,2 -2,2 l 0,11 c 0,0 0,-2 0,0 0,2 2,2 2,2 l 12,0 c 0,0 -2,0 0,0 2,0 2,-2 2,-2 l 0,-5 c 0,0 0,2 0,0 0,-2 -2,-2 -2,-2 l 0,0 c -2,0 -2,-2 -2,-2 l 0,0 0,-2 c 0,0 0,2 0,0 0,-2 -2,-2 -2,-2 z"
       id="path3074"
       inkscape:connector-curvature="0"
       sodipodi:nodetypes="sccsccsccscccccscs" />
    <path
       style="fill:#6f5534;stroke:#000000;stroke-width:1px;stroke-linecap:butt;stroke-linejoin:miter;stroke-opacity:1;fill-opacity:1"
       d="m 41,30 c -2,0 -2,2 -2,2 l 0,13 c 0,0 0,-2 0,0 0,2 2,2 2,2 l 4,0 c 0,0 -2,0 0,0 2,0 2,-2 2,-2 l 0,-13 c 0,0 0,2 0,0 0,-2 -2,-2 -2,-2 z"
       id="path3076"
       inkscape:connector-curvature="0" />
    <path
       style="fill:#5a4933;stroke:#000000;stroke-width:1px;stroke-linecap:butt;stroke-linejoin:miter;stroke-opacity:1;fill-opacity:1"
       d="m 21,37 c -2,0 -2,2 -2,2 l 0,6 c 0,0 0,-2 0,0 0,2 2,2 2,2 l 14,0 c 0,0 -2,0 0,0 2,0 2,-2 2,-2 l 0,-6 c 0,0 0,2 0,0 0,-2 -2,-2 -2,-2 z"
       id="path3080"
       inkscape:connector-curvature="0" />
    <rect
       style="fill:#000000;fill-opacity:0.48559672;fill-rule:nonzero;stroke:#96fff5;stroke-width:0.50000000000000000;stroke-linecap:round;stroke-linejoin:round;stroke-miterlimit:4;stroke-opacity:0.35390948000000000;stroke-dasharray:none;stroke-dashoffset:0"
       id="rect3852"
       width="60"
       height="55"
       x="-5.2020307"
       y="-2.2020304"
       inkscape:export-xdpi="240"
       inkscape:export-ydpi="240" />
  </g>
</svg>
