<?xml version="1.0" encoding="UTF-8" standalone="no"?>
<!-- Created with Inkscape (http://www.inkscape.org/) -->

<svg
   xmlns:dc="http://purl.org/dc/elements/1.1/"
   xmlns:cc="http://creativecommons.org/ns#"
   xmlns:rdf="http://www.w3.org/1999/02/22-rdf-syntax-ns#"
   xmlns:svg="http://www.w3.org/2000/svg"
   xmlns="http://www.w3.org/2000/svg"
   xmlns:sodipodi="http://sodipodi.sourceforge.net/DTD/sodipodi-0.dtd"
   xmlns:inkscape="http://www.inkscape.org/namespaces/inkscape"
   width="48px"
   height="48px"
   id="svg3027"
   version="1.1"
   inkscape:version="0.48.4 r9939"
   sodipodi:docname="bg-com-2.svg"
   inkscape:export-filename="/home/a_bond/Projects/spectrum-lost-gdx/_raw-assets/sprites/game/cells/background/stones-00-01.png"
   inkscape:export-xdpi="240"
   inkscape:export-ydpi="240">
  <defs
     id="defs3029" />
  <sodipodi:namedview
     id="base"
     pagecolor="#ffffff"
     bordercolor="#666666"
     borderopacity="1.0"
     inkscape:pageopacity="0.0"
     inkscape:pageshadow="2"
     inkscape:zoom="5.6979167"
     inkscape:cx="18.338217"
     inkscape:cy="34.730929"
     inkscape:current-layer="layer1"
     showgrid="true"
     inkscape:grid-bbox="true"
     inkscape:document-units="px"
     inkscape:window-width="1362"
     inkscape:window-height="715"
     inkscape:window-x="0"
     inkscape:window-y="32"
     inkscape:window-maximized="0">
    <inkscape:grid
       type="xygrid"
       id="grid3035" />
  </sodipodi:namedview>
  <metadata
     id="metadata3032">
    <rdf:RDF>
      <cc:Work
         rdf:about="">
        <dc:format>image/svg+xml</dc:format>
        <dc:type
           rdf:resource="http://purl.org/dc/dcmitype/StillImage" />
        <dc:title />
      </cc:Work>
    </rdf:RDF>
  </metadata>
  <g
     id="layer1"
     inkscape:label="Layer 1"
     inkscape:groupmode="layer">
    <rect
       style="fill:#2c1b00;fill-opacity:1;fill-rule:nonzero;stroke:#96fff5;stroke-width:0.49753967;stroke-linecap:round;stroke-linejoin:round;stroke-miterlimit:4;stroke-opacity:0.35390948;stroke-dasharray:none;stroke-dashoffset:0"
       id="rect3082"
       width="54.729366"
       height="52.739204"
       x="-4.3175011"
       y="-2.0889816" />
    <path
       style="fill:#5e3500;fill-opacity:1;stroke:#000000;stroke-width:1px;stroke-linecap:butt;stroke-linejoin:miter;stroke-opacity:1"
       d="m 17,3 c 0,-1 1,-1 1,-1 l 7,0 c 0,0 4,0 6,0 1,0 1,1 1,1 l 0,1 c 0,0 0,-1 0,1 0,1 -1,1 -1,1 L 18,6 c 0,0 -1,0 -1,-1 0,-1 0,-2 0,-2 z"
       id="path3037"
       inkscape:connector-curvature="0"
       sodipodi:nodetypes="sccsccscczs" />
    <path
       style="fill:#966421;fill-opacity:1;stroke:#000000;stroke-width:1px;stroke-linecap:butt;stroke-linejoin:miter;stroke-opacity:1"
       d="M 1,4 C 1,2 3,2 3,2 l 0,0 c 7,0 9,0 10,0 2,0 2,2 2,2 l 0,0 c 0,0 0,2 -2,2 -2,0 -2,0 -2,0 0,0 -2,0 -2,2 0,2 0,2 0,2 0,2 -2,2 -2,2 -2.1064311,0 -2.4567669,0 -4,0 -2,0 -2,-2 -2,-2 l 0,0 z"
       id="path3039"
       inkscape:connector-curvature="0"
       sodipodi:nodetypes="sccscczcscccccs" />
    <path
       style="fill:#7c5c31;fill-opacity:1;stroke:#000000;stroke-width:1px;stroke-linecap:butt;stroke-linejoin:miter;stroke-opacity:1"
       d="m 34,3 c 0,-2.00000002 2,-2 2,-2 l 3,0 c 0,0 4,0 6,0 2,0 2,2 2,2 l 0,13 c 0,0 0,2 -2,2 -2,0 0,0 -2,0 -2,0 -2,-2 -2,-2 0,0 0,-6 0,-8 0,-2 -2,-2 -2,-2 l -1,0 c 0,0 0,0 -2,0 -2,0 -2,-2 -2,-2 z"
       id="path3041"
       inkscape:connector-curvature="0"
       sodipodi:nodetypes="sccscczzcsccscs" />
    <path
       style="fill:#5c5143;fill-opacity:1;stroke:#000000;stroke-width:1px;stroke-linecap:butt;stroke-linejoin:miter;stroke-opacity:1"
       d="m 36,8 c 2,0 2,2 2,2 l 0,4 0,6 c 0,0 0,2 -2,2 -2,0 -2,0 -4,0 -2,0 -2,-2 -2,-2 0,-2 -2,-2 -2,-2 l -9,0 c 0,0 2,0 0,0 -2,0 -2,-2 -2,-2 l 0.101525,-5.737564 c 0,0 0,2 0,0 C 17.101525,8.2624359 19,8 19,8 z"
       id="path3043"
       inkscape:connector-curvature="0"
       sodipodi:nodetypes="sccczssccsccscs" />
    <path
       style="fill:#7d5625;fill-opacity:1;stroke:#000000;stroke-width:1px;stroke-linecap:butt;stroke-linejoin:miter;stroke-opacity:1"
       d="m 12,8 c -1,0 -1,1 -1,1 l 0,0 0,15 c 0,0 0,-2 0,0 0,2 2,2 2,2 1.526734,0.05227 12,0 12,0 0,0 1.99949,0.24264 2,-2 l 0,-1 c 0,0 0,1 0,-1 0,-2.000001 -2,-2 -2,-2 l -9,0 c 0,0 1,0 0,0 -1,0 -1,-1 -1,-1 L 15,9 c 0,0 0,1 0,0 0,-1 -1,-1 -1,-1 z"
       id="path3045"
       inkscape:connector-curvature="0"
       sodipodi:nodetypes="scccsccccsccsccscs" />
    <path
       style="fill:#70532e;fill-opacity:1;stroke:#000000;stroke-width:1px;stroke-linecap:butt;stroke-linejoin:miter;stroke-opacity:1"
       d="m 1,44 c 0,-1 1,-1 1,-1 l 9,0 4,0 c 0,0 5,0 7,0 1,0 1,1 1,1 l 0,2 c 0,0 0,-2 0,0 0,1 -1,1 -1,1 L 8,47 C 8,47 4,47 2,47 1,47 1,46 1,46 z"
       id="path3047"
       inkscape:connector-curvature="0"
       sodipodi:nodetypes="scccsccsccscs" />
    <path
       style="fill:#966426;fill-opacity:1;stroke:#000000;stroke-width:1px;stroke-linecap:butt;stroke-linejoin:miter;stroke-opacity:1"
       d="m 1,16 c 0,-2 2,-2 2,-2 l 1,0 c 0,0 0,0 2,0 1.9999999,0 2,2 2,2 l 0,6 c 0,0 0,2 0,4 0,2 -2,2 -2,2 l -2,0 c 0,0 1,0 -1,0 -2,0 -2,-2 -2,-2 z"
       id="path3049"
       inkscape:connector-curvature="0"
       sodipodi:nodetypes="sccsccsccscs" />
    <path
       style="fill:#815115;fill-opacity:1;stroke:#000000;stroke-width:1px;stroke-linecap:butt;stroke-linejoin:miter;stroke-opacity:1"
       d="m 1,32 c 0,-2 2,-2 2,-2 l 1,0 c 0,0 0.9999999,0 3,0 2,0 2,2 2,2 l 0,4 c 0,0 0,1 0,3 0,2 -2,2 -2,2 l -2,0 c 0,0 0,0 -2,0 -2,0 -2,-2 -2,-2 0,-2.333333 0,-7 0,-7 z"
       id="path3051"
       inkscape:connector-curvature="0"
       sodipodi:nodetypes="sccsccsccscs" />
    <path
       style="fill:#834e0c;fill-opacity:1;stroke:#000000;stroke-width:1px;stroke-linecap:butt;stroke-linejoin:miter;stroke-opacity:1"
       d="m 13,28 c -2,0 -2,2 -2,2 l 0,6 c 0,0 0,1 0,3 0,2 2,2 2,2 l 2,0 2,0 c 0,0 2,0 4,0 2.000001,0 2,-2 2,-2 l 0,0 0,-9 c 0,0 0,2 0,0 0,-2 -2,-2 -2,-2 z"
       id="path3053"
       inkscape:connector-curvature="0"
       sodipodi:nodetypes="sccscccscccscs" />
    <path
       style="fill:#784500;fill-opacity:1;stroke:#000000;stroke-width:1px;stroke-linecap:butt;stroke-linejoin:miter;stroke-opacity:1"
       d="m 34,34 c 0,2 2,2 2,2 l 4,0 c 0,0 3,0 5,0 2,0 2,-2 2,-2 l 0,-8 c 0,0 0,-2 0,-4 0,-2 -2,-2 -2,-2 l -3,0 c 0,0 2,0 0,0 -2,0 -2,2 -2,2 l 0,0 c 0,2 -2,2 -2,2 l 0,0 -1,0 c 0,0 1,0 -1,0 -2,0 -2,2 -2,2 z"
       id="path3074"
       inkscape:connector-curvature="0"
       sodipodi:nodetypes="sccsccsccscccccscs" />
    <path
       style="fill:#6f5534;fill-opacity:1;stroke:#000000;stroke-width:1px;stroke-linecap:butt;stroke-linejoin:miter;stroke-opacity:1"
       d="m 27,28 c -2,0 -2,2 -2,2 l 0,13 c 0,0 0,0 0,2 0,2 2,2 2,2 l 2,0 c 0,0 -1,0 1,0 2,0 2,-2 2,-2 l 0,-11 c 0,0 0,-2 0,-4 0,-2 -2,-2 -2,-2 z"
       id="path3076"
       inkscape:connector-curvature="0"
       sodipodi:nodetypes="sccsccsccscs" />
    <path
       style="fill:#5a4933;fill-opacity:1;stroke:#000000;stroke-width:1px;stroke-linecap:butt;stroke-linejoin:miter;stroke-opacity:1"
       d="m 36,39 c -2,0 -2,2 -2,2 l 0,3 c 0,0 0,-1 0,1 0,2 2,2 2,2 l 5,0 c 0,0 2,0 4,0 2,0 2,-2 2,-2 l 0,-2 c 0,0 0,0 0,-2 0,-2 -2,-2 -2,-2 z"
       id="path3080"
       inkscape:connector-curvature="0"
       sodipodi:nodetypes="sccsccsccscs" />
    <rect
       style="fill:#000000;fill-opacity:0.48559672;fill-rule:nonzero;stroke:#96fff5;stroke-width:0.5;stroke-linecap:round;stroke-linejoin:round;stroke-miterlimit:4;stroke-opacity:0.35390948;stroke-dasharray:none;stroke-dashoffset:0"
       id="rect3852"
       width="60"
       height="55"
       x="-6.2550445"
       y="-2.9917939"
       inkscape:export-xdpi="240"
       inkscape:export-ydpi="240" />
  </g>
</svg>
