<?xml version="1.0" encoding="UTF-8" standalone="no"?>
<!-- Created with Inkscape (http://www.inkscape.org/) -->

<svg
   xmlns:dc="http://purl.org/dc/elements/1.1/"
   xmlns:cc="http://creativecommons.org/ns#"
   xmlns:rdf="http://www.w3.org/1999/02/22-rdf-syntax-ns#"
   xmlns:svg="http://www.w3.org/2000/svg"
   xmlns="http://www.w3.org/2000/svg"
   xmlns:xlink="http://www.w3.org/1999/xlink"
   xmlns:sodipodi="http://sodipodi.sourceforge.net/DTD/sodipodi-0.dtd"
   xmlns:inkscape="http://www.inkscape.org/namespaces/inkscape"
   width="48px"
   height="48px"
   id="svg4041"
   version="1.1"
   inkscape:version="0.48.4 r9939"
   sodipodi:docname="icon.svg"
   inkscape:export-filename="/home/a_bond/Projects/spectrum-lost-gdx/_raw-assets/sprites-raw/icon.png"
   inkscape:export-xdpi="240"
   inkscape:export-ydpi="240">
  <defs
     id="defs4043">
    <linearGradient
       inkscape:collect="always"
       id="linearGradient4804">
      <stop
         style="stop-color:#ffffff;stop-opacity:1;"
         offset="0"
         id="stop4806" />
      <stop
         style="stop-color:#ffffff;stop-opacity:0;"
         offset="1"
         id="stop4808" />
    </linearGradient>
    <linearGradient
       inkscape:collect="always"
       xlink:href="#linearGradient4378"
       id="linearGradient4384"
       x1="5"
       y1="32"
       x2="38"
       y2="20"
       gradientUnits="userSpaceOnUse" />
    <linearGradient
       id="linearGradient4378">
      <stop
         style="stop-color:#3fffe3;stop-opacity:0.38339922;"
         offset="0"
         id="stop4380" />
      <stop
         id="stop4390"
         offset="0.23697095"
         style="stop-color:#3f83ff;stop-opacity:0.3715415;" />
      <stop
         id="stop4388"
         offset="0.44255063"
         style="stop-color:#3ffff8;stop-opacity:0.38735178;" />
      <stop
         style="stop-color:#473fff;stop-opacity:0.25296444;"
         offset="0.62820029"
         id="stop4392" />
      <stop
         id="stop4386"
         offset="0.79009771"
         style="stop-color:#3fffe8;stop-opacity:0.32411069;" />
      <stop
         style="stop-color:#938bf2;stop-opacity:0.25296444;"
         offset="0.89002091"
         id="stop4394" />
      <stop
         style="stop-color:#3fffe7;stop-opacity:0.40711462;"
         offset="1"
         id="stop4382" />
    </linearGradient>
    <linearGradient
       gradientTransform="matrix(-0.02601961,0.77937524,-0.77937524,-0.02601961,37.68859,5.7980265)"
       y2="20"
       x2="38"
       y1="32"
       x1="5"
       gradientUnits="userSpaceOnUse"
       id="linearGradient4039"
       xlink:href="#linearGradient4378"
       inkscape:collect="always" />
    <filter
       id="filter4734"
       inkscape:label="Glow"
       inkscape:menu="Shadows and Glows"
       inkscape:menu-tooltip="Glow of object's own color at the edges"
       color-interpolation-filters="sRGB">
      <feGaussianBlur
         stdDeviation="2 2"
         id="feGaussianBlur5028"
         result="result1" />
      <feComposite
         id="feComposite5032"
         in2="result1"
         operator="arithmetic"
         in="SourceGraphic"
         k1="0"
         k2="0"
         k4="0"
         k3="5.71" />
    </filter>
    <radialGradient
       inkscape:collect="always"
       xlink:href="#linearGradient4804"
       id="radialGradient4810"
       cx="18"
       cy="24"
       fx="18"
       fy="24"
       r="4"
       gradientUnits="userSpaceOnUse"
       gradientTransform="matrix(2.7499979,3.0898753e-7,-3.2477686e-7,2.7499997,-30.695788,-42.812106)" />
    <filter
       id="filter4812"
       inkscape:label="Glow"
       inkscape:menu="Shadows and Glows"
       inkscape:menu-tooltip="Glow of object's own color at the edges"
       color-interpolation-filters="sRGB">
      <feGaussianBlur
         stdDeviation="2 2"
         id="feGaussianBlur5048"
         result="result1"
         k3="5.1399999999999997" />
      <feComposite
         id="feComposite5050"
         in2="result1"
         in="SourceGraphic"
         operator="arithmetic"
         k1="0"
         k3="5.140186915887849"
         k2="0" />
    </filter>
    <filter
       id="filter5016"
       inkscape:label="Glow"
       inkscape:menu="Shadows and Glows"
       inkscape:menu-tooltip="Glow of object's own color at the edges"
       color-interpolation-filters="sRGB"
       width="2"
       height="2"
       x="-0.5"
       y="-0.5">
      <feGaussianBlur
         id="feGaussianBlur5018"
         stdDeviation="2.1000000000000001"
         result="result91" />
      <feComposite
         in2="result91"
         id="feComposite5020"
         in="SourceGraphic"
         operator="arithmetic"
         k1="0"
         k2="0"
         k3="2.8571428571428577"
         k4="0" />
    </filter>
    <filter
       id="filter5034"
       inkscape:label="Fuzzy Glow"
       inkscape:menu="Shadows and Glows"
       inkscape:menu-tooltip="Overlays a semi-transparent shifted copy to a blurred one"
       color-interpolation-filters="sRGB">
      <feGaussianBlur
         stdDeviation="2 2"
         id="feGaussianBlur5044"
         result="result1" />
      <feComposite
         id="feComposite5046"
         in2="result1"
         in="SourceGraphic"
         operator="arithmetic"
         k1="0"
         k2="0"
         k3="5.178571428571427" />
    </filter>
    <filter
       id="filter5052"
       inkscape:label="Glow"
       inkscape:menu="Shadows and Glows"
       inkscape:menu-tooltip="Glow of object's own color at the edges"
       color-interpolation-filters="sRGB">
      <feGaussianBlur
         id="feGaussianBlur5054"
         stdDeviation="0.01 2"
         result="result91" />
      <feComposite
         id="feComposite5056"
         in2="result91"
         in="SourceGraphic"
         operator="arithmetic"
         k1="1.6071428571428577"
         k3="0.71428571428571352" />
    </filter>
  </defs>
  <sodipodi:namedview
     id="base"
     pagecolor="#ffffff"
     bordercolor="#666666"
     borderopacity="1.0"
     inkscape:pageopacity="0.0"
     inkscape:pageshadow="2"
     inkscape:zoom="9.8994949"
     inkscape:cx="22.615551"
     inkscape:cy="26.088048"
     inkscape:current-layer="layer1"
     showgrid="true"
     inkscape:grid-bbox="true"
     inkscape:document-units="px"
     showguides="true"
     inkscape:guide-bbox="true"
     inkscape:window-width="1362"
     inkscape:window-height="715"
     inkscape:window-x="0"
     inkscape:window-y="32"
     inkscape:window-maximized="0">
    <inkscape:grid
       type="xygrid"
       id="grid4049" />
    <sodipodi:guide
       orientation="0.70710678,0.70710678"
       position="0,48"
       id="guide4080" />
    <sodipodi:guide
       orientation="0,1"
       position="0,24"
       id="guide4082" />
    <sodipodi:guide
       orientation="1,0"
       position="24,48"
       id="guide4084" />
    <sodipodi:guide
       orientation="1,0"
       position="39,48"
       id="guide4667" />
  </sodipodi:namedview>
  <metadata
     id="metadata4046">
    <rdf:RDF>
      <cc:Work
         rdf:about="">
        <dc:format>image/svg+xml</dc:format>
        <dc:type
           rdf:resource="http://purl.org/dc/dcmitype/StillImage" />
        <dc:title />
      </cc:Work>
    </rdf:RDF>
  </metadata>
  <g
     id="layer1"
     inkscape:label="Layer 1"
     inkscape:groupmode="layer">
    <path
       style="fill:#2c1b00;stroke:#000000;stroke-width:1px;stroke-linecap:butt;stroke-linejoin:miter;stroke-opacity:1;fill-opacity:1"
       d="m 2,4 0,21 c 0,0 0,-2 0,0 0,2 2,2 2,2 l 1,0 c 0,0 1,0 3,0 2,0 2,2 2,2 l 0,4 c 0,0 0,3 0,5 0,2 2,2 2,2 l 0,0 c 2,0 2,2 2,2 l 0,3 c 0,0 0,-2 0,0 0,2 2,2 2,2 l 19,0 c 0,0 -2,0 0,0 2,0 2,-2 2,-2 l 0,0 c 0,-1 1,-1 1,-1 l 3,0 c 0,0 0.763932,0 3,0 2,0 2,-2 2,-2 l 0,-18 c 0,0 0,2 0,0 0,-2 -2,-2 -2,-2 l -4,0 c 0,0 2,0 0,0 -2,0 -2,-2 -2,-2 l 0,-3 c 0,0 0,2 0,0 0,-2 2,-2 2,-2 0,0 2,0 4,0 2,0 2,-2 2,-2 L 46,3 c 0,0 0,3.236068 0,1 C 46,2 44,2 44,2 L 7,2 C 7,2 7,2 4,2 2,2 2,4 2,4 z"
       id="path4153"
       inkscape:connector-curvature="0"
       sodipodi:nodetypes="ccsccsccsccccsccsccccsccsccsccscsccsccsc" />
    <path
       style="fill:#5e3500;fill-opacity:1;stroke:#000000;stroke-width:1px;stroke-linecap:butt;stroke-linejoin:miter;stroke-opacity:1"
       d="M 4,6 C 4,4 6,4 6,4 l 7,0 c 0,0 -2,0 0,0 2,0 2,2 2,2 l 0,3 0,2 c 0,2.169596 -2,2 -2,2 L 6,13 C 6,13 4,13 4,11 4,8.9999999 4,6 4,6 z"
       id="path3037"
       inkscape:connector-curvature="0"
       sodipodi:nodetypes="sccsccscczs" />
    <path
       style="fill:#966421;fill-opacity:1;stroke:#000000;stroke-width:1px;stroke-linecap:butt;stroke-linejoin:miter;stroke-opacity:1"
       d="m 17.131473,5.6873119 c 0,-2 2,-2 2,-2 l 0,0 c 9,0 8,0 9,0 2,0 2,2 2,2 l 0,6.0000001 c 0,0 0,-2.0000001 0,0 0,2 -2,2 -2,2 l 0,0 c 0,0 -7,0 -9,0 -2,0 -2,-2 -2,-2 l 0,0 z"
       id="path3039"
       inkscape:connector-curvature="0"
       sodipodi:nodetypes="sccsccsccsccs" />
    <path
       style="fill:#7c5c31;fill-opacity:1;stroke:#000000;stroke-width:1px;stroke-linecap:butt;stroke-linejoin:miter;stroke-opacity:1"
       d="m 32.131473,5.6873119 c 0,-2 2,-2 2,-2 l 8,0 c 0,0 -2,0 0,0 2,0 2,2 2,2 l 0,5.0000001 c 0,0 0,-2.0000001 0,0 0,2 -2,2 -2,2 l -8,0 c 0,0 2,0 0,0 -2,0 -2,-2 -2,-2 z"
       id="path3041"
       inkscape:connector-curvature="0" />
    <path
       style="fill:#5c5143;fill-opacity:1;stroke:#000000;stroke-width:1px;stroke-linecap:butt;stroke-linejoin:miter;stroke-opacity:1"
       d="m 14.131473,14.687312 c 2,0 2,2 2,2 l 0,6 c 0,0 0,-2 0,0 0,2 -2,2 -2,2 l -8.0000001,0 c 0,0 2,0 0,0 -2,0 -2,-2 -2,-2 l 0,-6 c 0,0 0,2 0,0 0,-2 2,-2 2,-2 z"
       id="path3043"
       inkscape:connector-curvature="0" />
    <path
       style="fill:#70532e;fill-opacity:1;stroke:#000000;stroke-width:1px;stroke-linecap:butt;stroke-linejoin:miter;stroke-opacity:1"
       d="m 17.488616,17.615883 c 0,-2 2,-2 2,-2 0,0 0,0 0,0 l 13,0 c 0,0 -2,0 0,0 2,0 2,2 2,2 l 0,3 c 0,0 0,-2 0,0 0,2 -2,2 -2,2 l -13,0 c 0,0 2,0 0,0 -2,0 -2,-2 -2,-2 z"
       id="path3047"
       inkscape:connector-curvature="0" />
    <path
       style="fill:#815115;fill-opacity:1;stroke:#000000;stroke-width:1px;stroke-linecap:butt;stroke-linejoin:miter;stroke-opacity:1"
       d="m 13.131473,28.687312 c 0,-2 2,-2 2,-2 0,0 3,0 3,0 0,0 -2,0 0,0 2,0 2,2 2,2 0,0 0,7 0,7 0,0 0,-2 0,0 0,2 -2,2 -2,2 l -3,0 c 0,0 2,0 0,0 -2,0 -2,-2 -2,-2 z"
       id="path3051"
       inkscape:connector-curvature="0" />
    <path
       style="fill:#834e0c;fill-opacity:1;stroke:#000000;stroke-width:1px;stroke-linecap:butt;stroke-linejoin:miter;stroke-opacity:1"
       d="m 23.917187,24.687312 c -2,0 -2,2 -2,2 l 0,9 c 0,0 0,-2 0,0 0,2 2,2 2,2 0,0 0,0 0,0 l 8,0 c 0,0 -2,0 0,0 2,0 2,-2 2,-2 0,0 0,0 0,0 l 0,-9 c 0,0 0,2 0,0 0,-2 -2,-2 -2,-2 z"
       id="path3053"
       inkscape:connector-curvature="0" />
    <path
       style="fill:#6f5534;fill-opacity:1;stroke:#000000;stroke-width:1px;stroke-linecap:butt;stroke-linejoin:miter;stroke-opacity:1"
       d="m 37.929442,24.505076 c -2,0 -2,2 -2,2 l 0,13 c 0,0 0,-2 0,0 0,2 2,2 2,2 l 4,0 c 0,0 -2,0 0,0 2,0 2,-2 2,-2 l 0,-13 c 0,0 0,2 0,0 0,-2 -2,-2 -2,-2 z"
       id="path3076"
       inkscape:connector-curvature="0" />
    <path
       style="fill:#5a4933;fill-opacity:1;stroke:#000000;stroke-width:1px;stroke-linecap:butt;stroke-linejoin:miter;stroke-opacity:1"
       d="m 18,39 c -2,0 -2,2 -2,2 l 0,1 c 0,0 0,-1 0,1 0,2 2,2 2,2 l 9,0 c 0,0 3,0 5,0 2,0 2,-2 2,-2 l 0,-1 c 0,0 0,1 0,-1 0,-2 -2,-2 -2,-2 z"
       id="path3080"
       inkscape:connector-curvature="0"
       sodipodi:nodetypes="sccsccsccscs" />
    <path
       style="fill:none;stroke:#ffffff;stroke-width:2.4000001;stroke-linecap:round;stroke-linejoin:round;stroke-miterlimit:4;stroke-opacity:0.49173554;stroke-dasharray:none;filter:url(#filter4812)"
       d="M 18,24 1.9621612,23.732565"
       id="path4663"
       inkscape:connector-curvature="0"
       sodipodi:nodetypes="cc"
       transform="matrix(0.99944318,0.03336663,-0.03336663,0.99944318,0.83080713,-0.78482131)" />
    <path
       style="fill:#00ff00;fill-opacity:1;stroke:#00ff00;stroke-width:2;stroke-linecap:round;stroke-linejoin:round;stroke-miterlimit:4;stroke-opacity:0.5;stroke-dasharray:none;filter:url(#filter4734)"
       d="m 18,24 29.003837,0.229953"
       id="path4665-4"
       inkscape:connector-curvature="0"
       sodipodi:nodetypes="cc"
       transform="matrix(0.99944318,0.03336663,-0.03336663,0.99944318,0.83080713,-0.78482131)" />
    <path
       style="fill:none;stroke:#0000ff;stroke-width:2;stroke-linecap:round;stroke-linejoin:round;stroke-miterlimit:4;stroke-opacity:0.49173554000000003;stroke-dasharray:none;filter:url(#filter5034)"
       d="M 38.274226,46.490863 18.019985,23.802414"
       id="path4665-8"
       inkscape:connector-curvature="0"
       sodipodi:nodetypes="cc" />
    <path
       style="fill:none;stroke:#ff0000;stroke-width:2;stroke-linecap:round;stroke-linejoin:round;stroke-miterlimit:4;stroke-opacity:1;stroke-dasharray:none;filter:url(#filter5016)"
       d="M 17.858054,23.863329 41,2"
       id="path4665-6"
       inkscape:connector-curvature="0"
       sodipodi:nodetypes="cc" />
    <rect
       style="fill:url(#radialGradient4810);fill-opacity:1;fill-rule:nonzero;stroke:none;filter:url(#filter5052)"
       id="rect4802"
       width="22"
       height="21"
       x="7.8041577"
       y="12.187895"
       ry="4"
       transform="matrix(0.99944318,0.03336663,-0.03336663,0.99944318,0,0)" />
    <path
       style="fill:url(#linearGradient4039);fill-opacity:1;stroke:#8ce2ff;stroke-width:0.38990474000000003;stroke-linecap:butt;stroke-linejoin:round;stroke-miterlimit:4;stroke-opacity:0.17355372;stroke-dasharray:none"
       d="M 30.829117,24.294875 11.917168,6.4981298 10.772305,40.79064 z"
       id="path4376"
       inkscape:connector-curvature="0" />
  </g>
</svg>
