<?xml version="1.0" encoding="UTF-8" standalone="no"?>
<!-- Created with Inkscape (http://www.inkscape.org/) -->

<svg
   xmlns:dc="http://purl.org/dc/elements/1.1/"
   xmlns:cc="http://creativecommons.org/ns#"
   xmlns:rdf="http://www.w3.org/1999/02/22-rdf-syntax-ns#"
   xmlns:svg="http://www.w3.org/2000/svg"
   xmlns="http://www.w3.org/2000/svg"
   xmlns:sodipodi="http://sodipodi.sourceforge.net/DTD/sodipodi-0.dtd"
   xmlns:inkscape="http://www.inkscape.org/namespaces/inkscape"
   width="48px"
   height="48px"
   id="svg2985"
   version="1.1"
   inkscape:version="0.48.4 r9939"
   sodipodi:docname="mirror_bg.svg"
   inkscape:export-filename="/home/a_bond/p3sb/z99_main/data/mirror_bg.png"
   inkscape:export-xdpi="240"
   inkscape:export-ydpi="240">
  <defs
     id="defs2987" />
  <sodipodi:namedview
     id="base"
     pagecolor="#ffffff"
     bordercolor="#666666"
     borderopacity="1.0"
     inkscape:pageopacity="0.0"
     inkscape:pageshadow="2"
     inkscape:zoom="9.8994949"
     inkscape:cx="-4.8132239"
     inkscape:cy="15.812883"
     inkscape:current-layer="layer1"
     showgrid="true"
     inkscape:grid-bbox="true"
     inkscape:document-units="px"
     inkscape:window-width="1362"
     inkscape:window-height="715"
     inkscape:window-x="0"
     inkscape:window-y="32"
     inkscape:window-maximized="0">
    <inkscape:grid
       type="xygrid"
       id="grid2993" />
  </sodipodi:namedview>
  <metadata
     id="metadata2990">
    <rdf:RDF>
      <cc:Work
         rdf:about="">
        <dc:format>image/svg+xml</dc:format>
        <dc:type
           rdf:resource="http://purl.org/dc/dcmitype/StillImage" />
        <dc:title></dc:title>
      </cc:Work>
    </rdf:RDF>
  </metadata>
  <g
     id="layer1"
     inkscape:label="Layer 1"
     inkscape:groupmode="layer">
    <rect
       style="fill:#000000;fill-opacity:0;fill-rule:nonzero;stroke:none;stroke-width:0.15200000000000000;stroke-linecap:round;stroke-linejoin:round;stroke-miterlimit:4;stroke-opacity:1;stroke-dasharray:none;stroke-dashoffset:0"
       id="rect5715"
       width="48"
       height="48"
       x="0"
       y="0"
       ry="0" />
    <path
       style="fill:#a27000;fill-opacity:1;stroke:#000000;stroke-width:1.07391357px;stroke-linecap:butt;stroke-linejoin:miter;stroke-opacity:1"
       d="m 7.9821587,13.271017 c -5.369568,0 -5.369568,-5.3695685 -5.369568,-5.3695685 0,0 0,-5.369568 5.369568,-5.369568 5.3695683,0 5.3695683,5.369568 5.3695683,5.369568 l 21.478272,0 c 0,0 0,-5.369568 5.369568,-5.369568 5.369568,0 5.369568,5.369568 5.369568,5.369568 0,5.3695685 -5.369568,5.3695685 -5.369568,5.3695685 l 0,0 0,21.478272 0,0 c 5.369568,0 5.369568,5.369568 5.369568,5.369568 0,0 0,5.369568 -5.369568,5.369568 -5.369568,0 -5.369568,-5.369568 -5.369568,-5.369568 l -21.478272,0 0,0 c 0,5.369568 -5.3695683,5.369568 -5.3695683,5.369568 0,0 -5.369568,0 -5.369568,-5.369568 0,-5.369568 5.369568,-5.369568 5.369568,-5.369568 z"
       id="path2997"
       inkscape:connector-curvature="0"
       sodipodi:nodetypes="ccsccsccccccsccccscc" />
    <path
       sodipodi:type="arc"
       style="fill:#e27900;fill-opacity:1;fill-rule:nonzero;stroke:#000000;stroke-width:0.40000001;stroke-linejoin:round;stroke-miterlimit:4;stroke-opacity:1;stroke-dasharray:none;stroke-dashoffset:0"
       id="path2999"
       sodipodi:cx="10"
       sodipodi:cy="8"
       sodipodi:rx="3"
       sodipodi:ry="3"
       d="m 13,8 a 3,3 0 1 1 -1.2e-4,-0.026801"
       sodipodi:start="0"
       sodipodi:end="6.2742514"
       sodipodi:open="true"
       transform="matrix(1.0739136,0,0,1.0739136,-2.7569773,-0.68986027)" />
    <path
       transform="matrix(1.0739136,0,0,1.0739136,-2.865459,31.625127)"
       sodipodi:type="arc"
       style="fill:#e27900;fill-opacity:1;fill-rule:nonzero;stroke:#000000;stroke-width:0.40000001;stroke-linejoin:round;stroke-miterlimit:4;stroke-opacity:1;stroke-dasharray:none;stroke-dashoffset:0"
       id="path2999-4"
       sodipodi:cx="10"
       sodipodi:cy="8"
       sodipodi:rx="2.8989847"
       sodipodi:ry="3.090863"
       d="m 12.898985,8 a 2.8989847,3.090863 0 1 1 -1.16e-4,-0.027613"
       sodipodi:start="0"
       sodipodi:end="6.2742514"
       sodipodi:open="true" />
    <path
       transform="matrix(1.0739136,0,0,1.0739136,29.526397,31.451776)"
       sodipodi:type="arc"
       style="fill:#e27900;fill-opacity:1;fill-rule:nonzero;stroke:#000000;stroke-width:0.40000001;stroke-linejoin:round;stroke-miterlimit:4;stroke-opacity:1;stroke-dasharray:none;stroke-dashoffset:0"
       id="path2999-4-9"
       sodipodi:cx="10"
       sodipodi:cy="8"
       sodipodi:rx="2.8989847"
       sodipodi:ry="3.090863"
       d="m 12.898985,8 a 2.8989847,3.090863 0 1 1 -1.16e-4,-0.027613"
       sodipodi:start="0"
       sodipodi:end="6.2742514"
       sodipodi:open="true" />
    <path
       transform="matrix(1.0739136,0,0,1.0739136,29.514946,-0.77817942)"
       sodipodi:type="arc"
       style="fill:#e27900;fill-opacity:1;fill-rule:nonzero;stroke:#000000;stroke-width:0.40000001;stroke-linejoin:round;stroke-miterlimit:4;stroke-opacity:1;stroke-dasharray:none;stroke-dashoffset:0"
       id="path2999-4-6"
       sodipodi:cx="10"
       sodipodi:cy="8"
       sodipodi:rx="2.8989847"
       sodipodi:ry="3.090863"
       d="m 12.898985,8 a 2.8989847,3.090863 0 1 1 -1.16e-4,-0.027613"
       sodipodi:start="0"
       sodipodi:end="6.2742514"
       sodipodi:open="true" />
    <path
       sodipodi:type="arc"
       style="fill:#e27900;fill-opacity:1;fill-rule:nonzero;stroke:#000000;stroke-width:0.40000001;stroke-linejoin:round;stroke-miterlimit:4;stroke-opacity:1;stroke-dasharray:none;stroke-dashoffset:0"
       id="path3819"
       sodipodi:cx="25"
       sodipodi:cy="23"
       sodipodi:rx="12"
       sodipodi:ry="12"
       d="m 37,23 a 12,12 0 1 1 -2.7e-5,-0.02546"
       sodipodi:start="0"
       sodipodi:end="6.2810636"
       sodipodi:open="true"
       transform="matrix(1.0739136,0,0,1.0739136,-2.7569773,-0.68986027)" />
    <path
       sodipodi:type="arc"
       style="fill:#663b00;fill-opacity:1;fill-rule:nonzero;stroke:#000000;stroke-width:0.40000001;stroke-linejoin:round;stroke-miterlimit:4;stroke-opacity:1;stroke-dasharray:none;stroke-dashoffset:0"
       id="path3821"
       sodipodi:cx="25"
       sodipodi:cy="23"
       sodipodi:rx="5"
       sodipodi:ry="5"
       d="m 30,23 a 5,5 0 1 1 -1.1e-5,-0.01061"
       sodipodi:start="0"
       sodipodi:end="6.2810636"
       sodipodi:open="true"
       transform="matrix(1.0739136,0,0,1.0739136,-2.7569773,-0.68986027)" />
  </g>
</svg>
